<?xml version="1.0" encoding="UTF-8" standalone="no"?>
<!-- Created with Inkscape (http://www.inkscape.org/) by Marsupilami -->
<svg
xmlns:dc="http://purl.org/dc/elements/1.1/"
xmlns:cc="http://creativecommons.org/ns#"
xmlns:rdf="http://www.w3.org/1999/02/22-rdf-syntax-ns#"
xmlns:svg="http://www.w3.org/2000/svg"
xmlns="http://www.w3.org/2000/svg"
xmlns:sodipodi="http://sodipodi.sourceforge.net/DTD/sodipodi-0.dtd"
xmlns:inkscape="http://www.inkscape.org/namespaces/inkscape"
version="1.0"
width="1097.2791"
height="255.26601"
viewBox="-4.83933 -4.83933 736.23423 171.16803"
id="svg6596"
inkscape:version="0.91 r13725"
sodipodi:docname="Pertamina_Logo.svg">
<metadata
id="metadata18">
<rdf:RDF>
<cc:Work
rdf:about="">
<dc:format>image/svg+xml</dc:format>
<dc:type
rdf:resource="http://purl.org/dc/dcmitype/StillImage" />
<dc:title></dc:title>
</cc:Work>
</rdf:RDF>
</metadata>
<sodipodi:namedview
pagecolor="#ffffff"
bordercolor="#666666"
borderopacity="1"
objecttolerance="10"
gridtolerance="10"
guidetolerance="10"
inkscape:pageopacity="0"
inkscape:pageshadow="2"
inkscape:window-width="1366"
inkscape:window-height="705"
id="namedview16"
showgrid="false"
inkscape:zoom="256"
inkscape:cx="1097.6396"
inkscape:cy="254.7006"
inkscape:window-x="-8"
inkscape:window-y="-8"
inkscape:window-maximized="1"
inkscape:current-layer="svg6596" />
<defs
id="defs6598" />
<g
id="g4292"
transform="matrix(3.6037187,0,0,3.6037187,1621.1458,946.93817)">
<g
id="flowRoot4146"
style="font-style:normal;font-variant:normal;font-weight:bold;font-stretch:normal;font-size:66.49641418px;line-height:125%;font-family:'Tw Cen MT';-inkscape-font-specification:'Tw Cen MT, Bold';text-align:start;letter-spacing:0px;word-spacing:0px;writing-mode:lr-tb;text-anchor:start;fill:#082313;fill-opacity:1;stroke:none;stroke-width:1px;stroke-linecap:butt;stroke-linejoin:miter;stroke-opacity:1"
transform="matrix(0.36469639,0,0,0.36469639,-415.43364,-255.62654)">
<path
style="fill:#082313;fill-opacity:1"
sodipodi:nodetypes="cscscscccccccscsscc"
inkscape:connector-curvature="0"
id="path4216"
d="m 104.48779,31.606137 17.55207,0 c 4.88866,0 8.83199,1.195421 11.83001,3.586262 2.998,2.368287 5.13559,5.49217 5.13559,9.371649 0,2.548727 -0.0528,7.443635 -1.53833,9.744256 -1.45848,2.278066 -3.67323,3.980977 -6.64424,5.108732 -2.971,1.127756 -6.19978,1.714189 -8.3065,1.7593 l -7.55794,0.135329 0,14.716762 -10.47066,0 z m 10.3086,9.475389 0,11.503217 6.40791,-1.64e-4 c 1.91764,-4.9e-5 3.55169,-0.575155 4.90216,-1.725466 1.37747,-1.150311 2.0662,-2.514896 2.0662,-4.093753 0,-1.804409 -0.76977,-3.202825 -2.30929,-4.19525 -1.53952,-0.992425 -3.1388,-1.489322 -5.97476,-1.489322 z" />
<path
sodipodi:nodetypes="ccccccccccccc"
style="fill:#082313;fill-opacity:1"
inkscape:connector-curvature="0"
id="path4218"
d="m 145.01591,31.606031 28.45205,0 0,8.796514 -18.04433,0 0,8.0704 17.50867,0 0,9.556462 -17.50867,0 0,8.108278 18.04433,0 0,9.890742 -28.45205,0 z" />
<path
sodipodi:nodetypes="cssacccccccccccsccc"
style="fill:#082313;fill-opacity:1"
inkscape:connector-curvature="0"
id="path4220"
d="m 178.7417,31.606137 18.01773,0 c 4.88865,0 8.83198,1.195421 11.83,3.586262 2.998,2.368287 5.13559,5.49217 5.13559,9.371649 0,2.548727 -0.0528,7.443635 -1.53833,9.744256 -1.45848,2.278066 -3.6732,3.980977 -6.64421,5.108732 -2.971,1.127756 -6.19978,1.714189 -8.30653,1.7593 l 8.46973,14.851991 -11.92059,0 -7.40773,-13.582433 -6.17499,0 0,13.582433 -1.50066,0 z m 11.80859,9.475389 0,11.503217 6.40794,-1.64e-4 c 1.91764,-4.9e-5 3.55168,-0.575155 4.90215,-1.725466 1.37747,-1.150311 2.06623,-2.514896 2.06623,-4.093753 0,-1.804409 -0.76977,-3.202825 -2.30929,-4.19525 -1.53952,-0.992425 -3.1388,-1.489322 -5.97479,-1.489322 z" />
<path
style="fill:#082313;fill-opacity:1"
inkscape:connector-curvature="0"
id="path4222"
d="m 246.61447,31.606031 0,8.796514 -15.54433,0 0,34.555882 -10.47066,0 0,-34.555882 -15.54433,0 0,-8.796514 z" />
<path
style="fill:#082313;fill-opacity:1"
inkscape:connector-curvature="0"
id="path4224"
d="m 282.91591,31.606031 19.45205,0 14.30013,43.352396 -11.47066,0 -2.56873,-8.796514 -19.60867,0 -2.54207,8.796514 -11.47066,0 z m 5.25,11.503217 -6.00867,20.052663 12.50867,0 z" />
<path
style="fill:#082313;fill-opacity:1"
inkscape:connector-curvature="0"
id="path4226"
d="m 322.41591,31.606031 11.95205,0 12.00013,24.755882 12.00013,-24.755882 11.95205,0 0,43.352396 -10.47066,0 0,-26.959427 -8.48152,16.162941 -8.48152,-16.162941 0,26.959427 -10.47066,0 z" />
<path
style="fill:#082313;fill-opacity:1"
inkscape:connector-curvature="0"
id="path4228"
d="m 379.91591,31.606031 10.47066,0 0,43.352396 -10.47066,0 z" />
<path
style="fill:#082313;fill-opacity:1"
inkscape:connector-curvature="0"
id="path4230"
d="m 398.41591,31.606031 12.45205,0 21.50013,27.959427 0,-27.959427 10.47066,0 0,43.352396 -11.45205,0 -22.50013,-28.759427 0,28.759427 -10.47066,0 z" />
<path
style="fill:#082313;fill-opacity:1"
inkscape:connector-curvature="0"
id="path4232"
d="m 454.41591,31.606031 19.45205,0 14.30013,43.352396 -11.47066,0 -2.56873,-8.796514 -19.60867,0 -2.54207,8.796514 -11.47066,0 z m 5.25,11.503217 -6.00867,20.052663 12.50867,0 z" />
</g>
<rect
style="fill:#b01e29;fill-opacity:1;stroke:none"
width="13.464844"
height="80.890625"
x="-449.04523"
y="-262.29358"
id="rect4234"
transform="matrix(0.36469639,0,0,0.36469639,-415.43364,-255.62654)" />
<rect
style="fill:#1f5aa6;fill-opacity:1;stroke:none"
width="13.464844"
height="80.890625"
x="-433.04523"
y="-262.29358"
id="rect4236"
transform="matrix(0.36469639,0,0,0.36469639,-415.43364,-255.62654)" />
<rect
style="fill:#509645;fill-opacity:1;stroke:none"
width="13.464844"
height="80.890625"
x="-417.04523"
y="-262.29358"
id="rect4238"
transform="matrix(0.36469639,0,0,0.36469639,-415.43364,-255.62654)" />
</g>
</svg>