<svg width="34" height="39" viewBox="0 0 34 39" fill="none" xmlns="http://www.w3.org/2000/svg">
<g clip-path="url(#clip0_581_3094)">
<path d="M16.5498 0C7.4748 0 0.0498047 2.925 0.0498047 6.5V32.5C0.0498047 36.075 7.4748 39 16.5498 39C25.6248 39 33.0498 36.075 33.0498 32.5V6.5C33.0498 2.925 25.6248 0 16.5498 0Z" fill="#E5E5E5"/>
<path d="M16.5498 26C7.4748 26 0.0498047 23.075 0.0498047 19.5V26C0.0498047 29.575 7.4748 32.5 16.5498 32.5C25.6248 32.5 33.0498 29.575 33.0498 26V19.5C33.0498 23.075 25.6248 26 16.5498 26ZM16.5498 13C7.4748 13 0.0498047 10.075 0.0498047 6.5V13C0.0498047 16.575 7.4748 19.5 16.5498 19.5C25.6248 19.5 33.0498 16.575 33.0498 13V6.5C33.0498 10.075 25.6248 13 16.5498 13Z" fill="#6F6F6F"/>
<path opacity="0.2" d="M16.5498 13C7.4748 13 0.0498047 10.075 0.0498047 6.5V32.5C0.0498047 36.075 7.4748 39 16.5498 39C25.6248 39 33.0498 36.075 33.0498 32.5V6.5C33.0498 10.075 25.6248 13 16.5498 13Z" fill="black"/>
</g>
<defs>
<clipPath id="clip0_581_3094">
<rect width="33" height="39" fill="white" transform="translate(0.0498047)"/>
</clipPath>
</defs>
</svg>
