<svg width="43" height="43" viewBox="0 0 43 43" fill="none" xmlns="http://www.w3.org/2000/svg">
<path d="M6.14263 0.203125C5.32582 0.203125 4.65918 0.869717 4.65918 1.68656V26.9981L1.29576 28.6822C1.10482 28.7703 0.987305 28.9612 0.987305 29.1522V42.0331H3.93951V38.1997C3.93951 37.8913 4.18918 37.6416 4.49762 37.6416H10.7104C11.0189 37.6416 11.2686 37.8913 11.2686 38.1997V42.0331H14.2207V38.1997C14.2207 37.8913 14.4704 37.6416 14.7789 37.6416H20.9917C21.3001 37.6416 21.5498 37.8913 21.5498 38.1997V42.0331H24.502V42.0478H28.9229V36.4519C28.9229 36.1434 29.1726 35.8937 29.4811 35.8937H37.1479C37.4564 35.8937 37.7061 36.1434 37.7061 36.4519V42.0478H42.0829V17.27C42.0829 16.3447 41.3339 15.6103 40.4232 15.6103H26.1617C25.2364 15.6103 24.502 16.3594 24.502 17.27V22.9394L20.8154 24.7802V1.68656C20.8154 0.869747 20.1489 0.203125 19.332 0.203125H16.4239C15.6071 0.203125 14.9404 0.869717 14.9404 1.68656V27.7138L13.5304 28.4178C13.1632 28.6087 12.7373 28.3444 12.7373 27.9331V23.8353C12.7373 23.4387 12.3114 23.1744 11.9442 23.3506L10.5342 24.0567V1.68656C10.5342 0.869747 9.8676 0.203125 9.05076 0.203125H6.14263ZM6.12793 26.2627V23.6884H9.06543V24.7921L6.12793 26.2627ZM19.3467 23.6884V25.5137L16.4092 26.9803V23.6884H19.3467ZM6.12793 6.07812H9.06543V9.00095H6.12793V6.07812ZM9.06543 14.8759V17.8134H6.12793V14.8759H9.06543ZM16.4092 6.07812H19.3467V9.00095H16.4092V6.07812ZM19.3467 14.8759V17.8134H16.4092V14.8759H19.3467ZM28.2032 21.5294C27.7773 21.5294 27.4248 21.1769 27.4248 20.7509V19.3263C27.4248 18.9003 27.7773 18.5478 28.2032 18.5478H29.5839C30.0098 18.5478 30.3623 18.9003 30.3623 19.3263V20.7509C30.3623 21.1916 30.0098 21.5294 29.5839 21.5294H28.2032ZM34.7686 19.3263V20.7509C34.7686 21.1916 34.4161 21.5294 33.9901 21.5294H32.6095C32.1836 21.5294 31.8311 21.1769 31.8311 20.7509V19.3263C31.8311 18.9003 32.1836 18.5478 32.6095 18.5478H33.9901C34.4161 18.5478 34.7686 18.9003 34.7686 19.3263ZM39.1748 19.3263V20.7509C39.1748 21.1916 38.8223 21.5294 38.3964 21.5294H37.0157C36.5898 21.5294 36.2373 21.1769 36.2373 20.7509V19.3263C36.2373 18.9003 36.5898 18.5478 37.0157 18.5478H38.3964C38.8223 18.5478 39.1748 18.9003 39.1748 19.3263ZM30.3623 23.7178V25.1425C30.3623 25.5684 30.0098 25.9209 29.5839 25.9209H28.2032C27.7773 25.9209 27.4248 25.5684 27.4248 25.1425V23.7178C27.4248 23.2919 27.7773 22.9394 28.2032 22.9394H29.5839C30.0098 22.9394 30.3623 23.2919 30.3623 23.7178ZM34.7686 23.7178V25.1425C34.7686 25.5684 34.4161 25.9209 33.9901 25.9209H32.6095C32.1836 25.9209 31.8311 25.5684 31.8311 25.1425V23.7178C31.8311 23.2919 32.1836 22.9394 32.6095 22.9394H33.9901C34.4161 22.9394 34.7686 23.2919 34.7686 23.7178ZM39.1748 23.7178V25.1425C39.1748 25.5684 38.8223 25.9209 38.3964 25.9209H37.0157C36.5898 25.9209 36.2373 25.5684 36.2373 25.1425V23.7178C36.2373 23.2919 36.5898 22.9394 37.0157 22.9394H38.3964C38.8223 22.9394 39.1748 23.2919 39.1748 23.7178ZM30.3623 28.0947V29.5194C30.3623 29.96 30.0098 30.2978 29.5839 30.2978H28.2032C27.7773 30.2978 27.4248 29.9453 27.4248 29.5194V28.0947C27.4248 27.6687 27.7773 27.3162 28.2032 27.3162H29.5839C30.0098 27.3162 30.3623 27.6687 30.3623 28.0947ZM34.7686 28.0947V29.5194C34.7686 29.96 34.4161 30.2978 33.9901 30.2978H32.6095C32.1836 30.2978 31.8311 29.9453 31.8311 29.5194V28.0947C31.8311 27.6687 32.1836 27.3162 32.6095 27.3162H33.9901C34.4161 27.3162 34.7686 27.6687 34.7686 28.0947ZM39.1748 28.0947V29.5194C39.1748 29.96 38.8223 30.2978 38.3964 30.2978H37.0157C36.5898 30.2978 36.2373 29.9453 36.2373 29.5194V28.0947C36.2373 27.6687 36.5898 27.3162 37.0157 27.3162H38.3964C38.8223 27.3162 39.1748 27.6687 39.1748 28.0947Z" fill="white"/>
</svg>
