<svg width="35" height="49" viewBox="0 0 35 49" fill="none" xmlns="http://www.w3.org/2000/svg">
<g filter="url(#filter0_d_581_4426)">
<path fill-rule="evenodd" clip-rule="evenodd" d="M22.8528 0.155762V1.45777H25.4778V0.155762H22.8528ZM5.04219 1.46826C4.86815 1.47696 4.70474 1.55445 4.58782 1.68367C4.4709 1.8129 4.41009 1.98327 4.41879 2.15732C4.42749 2.33136 4.50498 2.49484 4.6342 2.61175C4.76343 2.72867 4.93376 2.78946 5.1078 2.78076H7.06606V7.37451H28.0661V2.78076H30.0243C30.1984 2.78076 30.3653 2.71161 30.4884 2.58854C30.6115 2.46547 30.6806 2.29856 30.6806 2.12451C30.6806 1.95046 30.6115 1.78355 30.4884 1.66048C30.3653 1.53741 30.1984 1.46826 30.0243 1.46826H5.1078C5.08594 1.46717 5.06406 1.46717 5.04219 1.46826ZM5.04219 8.03076C4.86815 8.03946 4.70474 8.11695 4.58782 8.24617C4.4709 8.3754 4.41009 8.54577 4.41879 8.71982C4.42749 8.89386 4.50498 9.05733 4.6342 9.17425C4.76343 9.29117 4.93376 9.35196 5.1078 9.34326H30.0243C30.1984 9.34326 30.3653 9.27411 30.4884 9.15104C30.6115 9.02797 30.6806 8.86106 30.6806 8.68701C30.6806 8.51296 30.6115 8.34605 30.4884 8.22298C30.3653 8.09991 30.1984 8.03076 30.0243 8.03076H5.1078C5.08594 8.02967 5.06406 8.02967 5.04219 8.03076ZM7.06606 9.99951V32.312H28.0661V9.99951H7.06606ZM17.5136 14.5828C17.6123 14.5751 17.7114 14.5897 17.8037 14.6256C17.8959 14.6615 17.9789 14.7178 18.0465 14.7901C18.0465 14.7901 19.2146 16.0436 20.3892 17.612C20.9759 18.3982 21.5666 19.2631 22.022 20.115C22.4775 20.9681 22.8161 21.791 22.8161 22.6087C22.8161 25.4293 20.447 27.7078 17.5661 27.7078C14.6864 27.7078 12.3161 25.4293 12.3161 22.6087C12.3161 21.791 12.656 20.9681 13.1115 20.115C13.5669 19.2631 14.1575 18.3982 14.7442 17.6133C15.9176 16.0436 17.087 14.7915 17.087 14.7915C17.1978 14.6714 17.3508 14.597 17.5136 14.5828ZM17.5661 16.2641C17.2287 16.6368 16.6788 17.2143 15.7942 18.3969C15.2338 19.1489 14.676 19.9719 14.2704 20.7331C13.8635 21.4931 13.6286 22.2005 13.6286 22.61C13.6286 24.6956 15.3729 26.3953 17.5661 26.3953C19.7606 26.3953 21.5036 24.6956 21.5036 22.6087C21.5036 22.2018 21.2687 21.4931 20.8631 20.7318C20.4562 19.9732 19.8997 19.1489 19.338 18.3969C18.4534 17.2156 17.9034 16.6381 17.5661 16.2641ZM5.1078 32.9683C4.93341 32.9683 4.76617 33.0374 4.64285 33.1605C4.51954 33.2836 4.45027 33.4505 4.45027 33.6245C4.45027 33.7986 4.51954 33.9655 4.64285 34.0885C4.76617 34.2116 4.93341 34.2808 5.1078 34.2808H30.0243C30.1987 34.2808 30.366 34.2116 30.4893 34.0885C30.6127 33.9655 30.6819 33.7986 30.6819 33.6245C30.6819 33.4505 30.6127 33.2836 30.4893 33.1605C30.366 33.0374 30.1987 32.9683 30.0243 32.9683H5.1078ZM7.06606 34.937V39.5203H28.0661V34.937H7.06606ZM5.0921 39.5308C5.00592 39.5352 4.92146 39.5565 4.84353 39.5935C4.76559 39.6306 4.69572 39.6826 4.63789 39.7466C4.58006 39.8107 4.53535 39.8855 4.50643 39.9668C4.47751 40.0481 4.46494 40.1343 4.46934 40.2205C4.47373 40.3067 4.49502 40.3911 4.53206 40.4691C4.5691 40.547 4.6211 40.6169 4.68515 40.6747C4.7492 40.7325 4.82407 40.7772 4.90537 40.8061C4.98667 40.835 5.07281 40.8477 5.15899 40.8433H30.0243C30.1984 40.8433 30.3653 40.7741 30.4884 40.651C30.6115 40.528 30.6806 40.3611 30.6806 40.187C30.6806 40.013 30.6115 39.8461 30.4884 39.723C30.3653 39.5999 30.1984 39.5308 30.0243 39.5308H5.15899C5.13713 39.5297 5.11396 39.5297 5.0921 39.5308Z" fill="white"/>
</g>
<defs>
<filter id="filter0_d_581_4426" x="0.417969" y="0.155762" width="34.2637" height="48.6882" filterUnits="userSpaceOnUse" color-interpolation-filters="sRGB">
<feFlood flood-opacity="0" result="BackgroundImageFix"/>
<feColorMatrix in="SourceAlpha" type="matrix" values="0 0 0 0 0 0 0 0 0 0 0 0 0 0 0 0 0 0 127 0" result="hardAlpha"/>
<feOffset dy="4"/>
<feGaussianBlur stdDeviation="2"/>
<feComposite in2="hardAlpha" operator="out"/>
<feColorMatrix type="matrix" values="0 0 0 0 0 0 0 0 0 0 0 0 0 0 0 0 0 0 0.25 0"/>
<feBlend mode="normal" in2="BackgroundImageFix" result="effect1_dropShadow_581_4426"/>
<feBlend mode="normal" in="SourceGraphic" in2="effect1_dropShadow_581_4426" result="shape"/>
</filter>
</defs>
</svg>
